<mxfile host="Electron" modified="2024-02-29T14:07:15.087Z" agent="Mozilla/5.0 (Windows NT 10.0; Win64; x64) AppleWebKit/537.36 (KHTML, like Gecko) draw.io/23.1.5 Chrome/120.0.6099.109 Electron/28.1.0 Safari/537.36" etag="tjgpfvM1LwVoFDDOentW" version="23.1.5" type="device">
  <diagram name="Page-1" id="c4acf3e9-155e-7222-9cf6-157b1a14988f">
    <mxGraphModel dx="1114" dy="664" grid="1" gridSize="10" guides="1" tooltips="1" connect="1" arrows="1" fold="1" page="1" pageScale="1" pageWidth="2339" pageHeight="3300" background="none" math="0" shadow="0">
      <root>
        <mxCell id="0" />
        <mxCell id="1" parent="0" />
        <mxCell id="MpVwaAUKZf7uQ-bDsImO-1" value="" style="shape=folder;fontStyle=1;spacingTop=10;tabWidth=40;tabHeight=14;tabPosition=left;html=1;whiteSpace=wrap;" parent="1" vertex="1">
          <mxGeometry x="800" y="46" width="950" height="534" as="geometry" />
        </mxCell>
        <mxCell id="1MnSLkCpfDYx5LCEo9XZ-2" value="&lt;p style=&quot;margin:0px;margin-top:4px;text-align:center;&quot;&gt;&lt;b&gt;ConverterColor&lt;/b&gt;&lt;/p&gt;&lt;hr size=&quot;1&quot;&gt;&lt;p style=&quot;margin:0px;margin-left:4px;&quot;&gt;- myLetters&lt;span style=&quot;background-color: initial;&quot;&gt;: String (Static)&lt;/span&gt;&lt;/p&gt;&lt;hr size=&quot;1&quot;&gt;&lt;p style=&quot;margin:0px;margin-left:4px;&quot;&gt;+&amp;nbsp;getMyLetters&lt;span style=&quot;background-color: initial;&quot;&gt;(): String&lt;/span&gt;&lt;/p&gt;" style="verticalAlign=top;align=left;overflow=fill;html=1;whiteSpace=wrap;" parent="1" vertex="1">
          <mxGeometry x="1240" y="80" width="160" height="90" as="geometry" />
        </mxCell>
        <mxCell id="1MnSLkCpfDYx5LCEo9XZ-3" value="&lt;p style=&quot;margin:0px;margin-top:4px;text-align:center;&quot;&gt;&lt;b&gt;Hexa2RGB&lt;/b&gt;&lt;/p&gt;&lt;hr size=&quot;1&quot;&gt;&lt;p style=&quot;margin:0px;margin-left:4px;&quot;&gt;&lt;/p&gt;&lt;p style=&quot;margin:0px;margin-left:4px;&quot;&gt;&lt;span style=&quot;background-color: initial;&quot;&gt;+ converter(String code, String myLetters) (Static)&lt;/span&gt;&lt;br&gt;&lt;/p&gt;" style="verticalAlign=top;align=left;overflow=fill;html=1;whiteSpace=wrap;" parent="1" vertex="1">
          <mxGeometry x="820" y="235" width="280" height="60" as="geometry" />
        </mxCell>
        <mxCell id="1MnSLkCpfDYx5LCEo9XZ-5" value="Extends" style="endArrow=block;endSize=16;endFill=0;html=1;rounded=0;exitX=0.5;exitY=0;exitDx=0;exitDy=0;" parent="1" target="1MnSLkCpfDYx5LCEo9XZ-2" edge="1" source="1MnSLkCpfDYx5LCEo9XZ-3">
          <mxGeometry x="-0.6596" y="1" width="160" relative="1" as="geometry">
            <mxPoint x="1080" y="200" as="sourcePoint" />
            <mxPoint x="1040" y="270" as="targetPoint" />
            <Array as="points">
              <mxPoint x="960" y="120" />
            </Array>
            <mxPoint as="offset" />
          </mxGeometry>
        </mxCell>
        <mxCell id="1MnSLkCpfDYx5LCEo9XZ-10" value="&lt;p style=&quot;margin:0px;margin-top:4px;text-align:center;&quot;&gt;&lt;b&gt;RGB2Hexa&lt;/b&gt;&lt;/p&gt;&lt;hr size=&quot;1&quot;&gt;&lt;p style=&quot;margin:0px;margin-left:4px;&quot;&gt;&lt;/p&gt;&lt;p style=&quot;margin:0px;margin-left:4px;&quot;&gt;&lt;span style=&quot;background-color: initial;&quot;&gt;+ converter(String code) (Static)&lt;/span&gt;&lt;br&gt;&lt;/p&gt;" style="verticalAlign=top;align=left;overflow=fill;html=1;whiteSpace=wrap;container=0;" parent="1" vertex="1">
          <mxGeometry x="1540" y="235" width="190" height="60" as="geometry" />
        </mxCell>
        <mxCell id="1MnSLkCpfDYx5LCEo9XZ-11" value="Extends" style="endArrow=block;endSize=16;endFill=0;html=1;rounded=0;exitX=0.5;exitY=0;exitDx=0;exitDy=0;entryX=1;entryY=0.5;entryDx=0;entryDy=0;" parent="1" edge="1" source="1MnSLkCpfDYx5LCEo9XZ-10">
          <mxGeometry x="-0.6596" y="1" width="160" relative="1" as="geometry">
            <mxPoint x="1560" y="198" as="sourcePoint" />
            <mxPoint x="1400" y="120" as="targetPoint" />
            <Array as="points">
              <mxPoint x="1635" y="120" />
            </Array>
            <mxPoint as="offset" />
          </mxGeometry>
        </mxCell>
        <mxCell id="1MnSLkCpfDYx5LCEo9XZ-16" value="&lt;p style=&quot;margin:0px;margin-top:4px;text-align:center;&quot;&gt;&lt;b&gt;Main&lt;/b&gt;&lt;/p&gt;&lt;hr size=&quot;1&quot;&gt;&lt;p style=&quot;margin:0px;margin-left:4px;&quot;&gt;&lt;/p&gt;&lt;p style=&quot;margin:0px;margin-left:4px;&quot;&gt;+ main(String[] args): void&lt;/p&gt;" style="verticalAlign=top;align=left;overflow=fill;html=1;whiteSpace=wrap;" parent="1" vertex="1">
          <mxGeometry x="1240" y="500" width="160" height="60" as="geometry" />
        </mxCell>
        <mxCell id="1MnSLkCpfDYx5LCEo9XZ-17" value="Use" style="endArrow=open;endSize=12;dashed=1;html=1;rounded=0;entryX=0.5;entryY=1;entryDx=0;entryDy=0;exitX=1;exitY=0.5;exitDx=0;exitDy=0;" parent="1" source="UwyToUtANlLcH1BugkyY-2" target="1MnSLkCpfDYx5LCEo9XZ-10" edge="1">
          <mxGeometry x="0.5696" y="2" width="160" relative="1" as="geometry">
            <mxPoint x="1300" y="270" as="sourcePoint" />
            <mxPoint x="1460" y="270" as="targetPoint" />
            <Array as="points">
              <mxPoint x="1635" y="410" />
            </Array>
            <mxPoint as="offset" />
          </mxGeometry>
        </mxCell>
        <mxCell id="1MnSLkCpfDYx5LCEo9XZ-18" value="Use" style="endArrow=open;endSize=12;dashed=1;html=1;rounded=0;exitX=0;exitY=0.5;exitDx=0;exitDy=0;entryX=0.5;entryY=1;entryDx=0;entryDy=0;" parent="1" source="UwyToUtANlLcH1BugkyY-2" target="1MnSLkCpfDYx5LCEo9XZ-3" edge="1">
          <mxGeometry x="0.6703" width="160" relative="1" as="geometry">
            <mxPoint x="1411" y="380" as="sourcePoint" />
            <mxPoint x="1570" y="290" as="targetPoint" />
            <Array as="points">
              <mxPoint x="960" y="410" />
            </Array>
            <mxPoint as="offset" />
          </mxGeometry>
        </mxCell>
        <mxCell id="MpVwaAUKZf7uQ-bDsImO-2" value="esttebanps.converter" style="text;html=1;align=center;verticalAlign=middle;whiteSpace=wrap;rounded=0;fontSize=5;" parent="1" vertex="1">
          <mxGeometry x="808" y="47" width="39" height="9" as="geometry" />
        </mxCell>
        <mxCell id="MpVwaAUKZf7uQ-bDsImO-3" value="Validator" style="swimlane;fontStyle=1;align=center;verticalAlign=top;childLayout=stackLayout;horizontal=1;startSize=26;horizontalStack=0;resizeParent=1;resizeParentMax=0;resizeLast=0;collapsible=1;marginBottom=0;whiteSpace=wrap;html=1;" parent="1" vertex="1">
          <mxGeometry x="1210" y="200" width="220" height="104" as="geometry" />
        </mxCell>
        <mxCell id="MpVwaAUKZf7uQ-bDsImO-7" value="+ hexaValidate(String code): boolean" style="text;strokeColor=none;fillColor=none;align=left;verticalAlign=top;spacingLeft=4;spacingRight=4;overflow=hidden;rotatable=0;points=[[0,0.5],[1,0.5]];portConstraint=eastwest;whiteSpace=wrap;html=1;" parent="MpVwaAUKZf7uQ-bDsImO-3" vertex="1">
          <mxGeometry y="26" width="220" height="26" as="geometry" />
        </mxCell>
        <mxCell id="MpVwaAUKZf7uQ-bDsImO-6" value="+ rgbValidate(String code): boolean" style="text;strokeColor=none;fillColor=none;align=left;verticalAlign=top;spacingLeft=4;spacingRight=4;overflow=hidden;rotatable=0;points=[[0,0.5],[1,0.5]];portConstraint=eastwest;whiteSpace=wrap;html=1;" parent="MpVwaAUKZf7uQ-bDsImO-3" vertex="1">
          <mxGeometry y="52" width="220" height="26" as="geometry" />
        </mxCell>
        <mxCell id="UwyToUtANlLcH1BugkyY-10" value="&lt;p style=&quot;margin: 0px 0px 0px 4px;&quot;&gt;+ isLetter(char&amp;nbsp;&lt;font face=&quot;Helvetica&quot;&gt;code&lt;/font&gt;): boolean (Static)&lt;/p&gt;&lt;div&gt;&lt;span style=&quot;background-color: initial;&quot;&gt;&lt;br&gt;&lt;/span&gt;&lt;/div&gt;" style="text;strokeColor=none;fillColor=none;align=left;verticalAlign=top;spacingLeft=4;spacingRight=4;overflow=hidden;rotatable=0;points=[[0,0.5],[1,0.5]];portConstraint=eastwest;whiteSpace=wrap;html=1;" vertex="1" parent="MpVwaAUKZf7uQ-bDsImO-3">
          <mxGeometry y="78" width="220" height="26" as="geometry" />
        </mxCell>
        <mxCell id="UwyToUtANlLcH1BugkyY-1" value="Menu" style="swimlane;fontStyle=1;align=center;verticalAlign=top;childLayout=stackLayout;horizontal=1;startSize=26;horizontalStack=0;resizeParent=1;resizeParentMax=0;resizeLast=0;collapsible=1;marginBottom=0;whiteSpace=wrap;html=1;" vertex="1" parent="1">
          <mxGeometry x="1275" y="369.5" width="90" height="52" as="geometry" />
        </mxCell>
        <mxCell id="UwyToUtANlLcH1BugkyY-2" value="+ run(): void" style="text;strokeColor=none;fillColor=none;align=left;verticalAlign=top;spacingLeft=4;spacingRight=4;overflow=hidden;rotatable=0;points=[[0,0.5],[1,0.5]];portConstraint=eastwest;whiteSpace=wrap;html=1;" vertex="1" parent="UwyToUtANlLcH1BugkyY-1">
          <mxGeometry y="26" width="90" height="26" as="geometry" />
        </mxCell>
        <mxCell id="UwyToUtANlLcH1BugkyY-5" value="Use" style="endArrow=open;endSize=12;dashed=1;html=1;rounded=0;entryX=0.506;entryY=1.038;entryDx=0;entryDy=0;exitX=0.5;exitY=0;exitDx=0;exitDy=0;entryPerimeter=0;" edge="1" parent="1" source="1MnSLkCpfDYx5LCEo9XZ-16" target="UwyToUtANlLcH1BugkyY-2">
          <mxGeometry x="-0.2201" y="-1" width="160" relative="1" as="geometry">
            <mxPoint x="1520" y="489" as="sourcePoint" />
            <mxPoint x="1590" y="370" as="targetPoint" />
            <Array as="points" />
            <mxPoint as="offset" />
          </mxGeometry>
        </mxCell>
        <mxCell id="UwyToUtANlLcH1BugkyY-9" value="Use" style="endArrow=open;endSize=12;dashed=1;html=1;rounded=0;exitX=0.5;exitY=0;exitDx=0;exitDy=0;entryX=0.495;entryY=0.923;entryDx=0;entryDy=0;entryPerimeter=0;" edge="1" parent="1" source="UwyToUtANlLcH1BugkyY-1" target="UwyToUtANlLcH1BugkyY-10">
          <mxGeometry x="-0.1366" width="160" relative="1" as="geometry">
            <mxPoint x="1410" y="549" as="sourcePoint" />
            <mxPoint x="1320" y="310" as="targetPoint" />
            <Array as="points">
              <mxPoint x="1320" y="330" />
            </Array>
            <mxPoint y="1" as="offset" />
          </mxGeometry>
        </mxCell>
        <mxCell id="UwyToUtANlLcH1BugkyY-11" value="Use" style="endArrow=open;endSize=12;dashed=1;html=1;rounded=0;exitX=1;exitY=0.5;exitDx=0;exitDy=0;entryX=0;entryY=0.5;entryDx=0;entryDy=0;" edge="1" parent="1" source="1MnSLkCpfDYx5LCEo9XZ-3" target="MpVwaAUKZf7uQ-bDsImO-6">
          <mxGeometry width="160" relative="1" as="geometry">
            <mxPoint x="1250" y="350" as="sourcePoint" />
            <mxPoint x="1410" y="350" as="targetPoint" />
          </mxGeometry>
        </mxCell>
      </root>
    </mxGraphModel>
  </diagram>
</mxfile>
